<?xml version="1.0" standalone="no"?>
<!DOCTYPE svg PUBLIC "-//W3C//DTD SVG 20010904//EN"
 "http://www.w3.org/TR/2001/REC-SVG-20010904/DTD/svg10.dtd">
<svg version="1.0" xmlns="http://www.w3.org/2000/svg"
 width="64.000000pt" height="64.000000pt" viewBox="0 0 64.000000 64.000000"
 preserveAspectRatio="xMidYMid meet">

<g transform="translate(0.000000,64.000000) scale(0.100000,-0.100000)"
fill="#000000" stroke="none">
<path d="M77 602 c-46 -51 23 -138 71 -90 16 16 16 80 0 96 -18 18 -53 15 -71
-6z m67 -24 c14 -23 -3 -52 -32 -56 -23 -4 -37 26 -27 59 8 24 43 23 59 -3z"/>
<path d="M240 580 c0 -22 5 -40 10 -40 6 0 10 -39 10 -97 0 -54 4 -104 9 -112
6 -9 33 -16 71 -19 l61 -5 -27 -28 c-38 -40 -24 -47 19 -10 19 17 39 31 44 31
5 0 22 -13 38 -30 15 -16 33 -26 38 -23 6 4 -4 19 -23 35 l-34 28 53 0 c87 0
91 5 91 120 0 80 3 101 16 108 10 6 14 20 12 43 l-3 34 -192 3 -193 2 0 -40z
m370 0 c0 -19 -7 -20 -175 -20 -168 0 -175 1 -175 20 0 19 7 20 175 20 168 0
175 -1 175 -20z m-22 -125 c5 -135 16 -126 -156 -123 l-147 3 -3 103 -3 103
153 -3 153 -3 3 -80z"/>
<path d="M358 473 c29 -2 74 -2 100 0 26 2 2 3 -53 3 -55 0 -76 -1 -47 -3z"/>
<path d="M320 440 c0 -6 45 -10 115 -10 70 0 115 4 115 10 0 6 -45 10 -115 10
-70 0 -115 -4 -115 -10z"/>
<path d="M315 400 c4 -6 55 -10 121 -10 69 0 114 4 114 10 0 6 -47 10 -121 10
-77 0 -118 -4 -114 -10z"/>
<path d="M17 482 c-13 -14 -17 -38 -17 -94 0 -89 5 -108 30 -108 16 0 19 -12
22 -105 3 -117 7 -123 66 -120 50 1 62 27 62 138 0 79 2 87 19 87 26 0 31 19
31 109 0 63 -4 81 -18 94 -23 21 -52 22 -77 3 -17 -12 -22 -12 -39 0 -28 19
-60 18 -79 -4z m73 -17 c7 -8 18 -15 25 -15 7 0 18 7 25 15 16 20 56 19 64 -1
3 -9 6 -49 6 -90 0 -59 -3 -74 -15 -74 -12 0 -15 13 -15 56 0 34 -4 53 -10 49
-5 -3 -10 -22 -10 -41 0 -34 0 -34 -45 -34 -45 0 -45 0 -45 34 0 19 -4 38 -10
41 -6 4 -10 -15 -10 -49 0 -43 -3 -56 -15 -56 -12 0 -15 16 -15 83 0 46 3 87
7 90 12 12 50 7 63 -8z m70 -269 c0 -74 -4 -117 -11 -122 -20 -12 -29 20 -31
121 l-2 100 -5 -110 c-5 -89 -9 -110 -21 -110 -12 0 -16 21 -18 118 l-3 117
46 0 45 0 0 -114z"/>
<path d="M234 186 c-9 -23 -1 -48 19 -60 25 -16 52 4 52 40 0 25 -4 29 -33 32
-22 2 -34 -2 -38 -12z m51 -22 c0 -10 -8 -20 -17 -22 -18 -3 -26 27 -11 42 12
11 28 0 28 -20z"/>
<path d="M384 186 c-9 -23 -1 -48 19 -60 25 -16 52 4 52 40 0 25 -4 29 -33 32
-22 2 -34 -2 -38 -12z m51 -22 c0 -10 -8 -20 -17 -22 -18 -3 -26 27 -11 42 12
11 28 0 28 -20z"/>
<path d="M534 186 c-9 -23 -1 -48 19 -60 25 -16 52 4 52 40 0 25 -4 29 -33 32
-22 2 -34 -2 -38 -12z m51 -22 c0 -10 -8 -20 -17 -22 -18 -3 -26 27 -11 42 12
11 28 0 28 -20z"/>
<path d="M205 112 c-3 -3 -5 -25 -5 -49 l0 -43 71 0 70 0 -3 48 -3 47 -62 1
c-34 1 -65 -1 -68 -4z m115 -44 c0 -27 -2 -28 -50 -28 -48 0 -50 1 -50 28 0
27 2 28 50 28 48 0 50 -1 50 -28z"/>
<path d="M355 112 c-3 -3 -5 -25 -5 -49 l0 -43 71 0 70 0 -3 48 -3 47 -62 1
c-34 1 -65 -1 -68 -4z m115 -44 c0 -27 -2 -28 -50 -28 -48 0 -50 1 -50 28 0
27 2 28 50 28 48 0 50 -1 50 -28z"/>
<path d="M505 112 c-3 -3 -5 -25 -5 -49 l0 -43 71 0 70 0 -3 48 -3 47 -62 1
c-34 1 -65 -1 -68 -4z m115 -43 c0 -28 -1 -29 -50 -29 -49 0 -50 1 -50 30 0
30 1 31 34 25 20 -4 36 -2 41 4 11 18 25 2 25 -30z"/>
</g>
</svg>
